<svg width="151" height="58" viewBox="0 0 151 58" fill="none" xmlns="http://www.w3.org/2000/svg">
<path fill-rule="evenodd" clip-rule="evenodd" d="M108.027 1.40278C107.709 1.52075 107.664 1.6258 107.39 2.90898C107.297 3.35341 107.109 4.2261 106.976 4.8483C106.843 5.4705 106.659 6.38036 106.568 6.86842C106.477 7.35648 106.262 8.4118 106.089 9.21177C105.049 14.0455 104.586 16.2596 104.456 17.0111C104.377 17.4797 104.275 17.9209 104.23 17.992C104.186 18.0631 104.073 18.5544 103.98 19.0813C103.888 19.6081 103.665 20.7297 103.485 21.5749C103.305 22.4201 102.978 23.9829 102.758 25.0495C102.539 26.1162 102.136 28.0425 101.864 29.3322C100.638 35.1259 100.454 36.6256 100.702 38.8042C100.875 40.333 101.484 41.823 102.476 43.006C104.531 45.456 108.032 45.915 111.016 45.4302C111.842 45.296 112.656 45.073 113.443 44.7934C115.252 44.1518 117.86 42.6359 118.979 41.5741L119.496 41.0845L120.015 41.5208C121.665 42.9074 124.115 43.591 127.449 43.5943C129.322 43.5959 129.867 43.5345 131.254 43.1595C132.695 42.7701 134.465 42.0283 135.012 41.5822C135.853 40.897 135.299 43.6023 134.144 45.8261C133.265 47.5198 131.811 48.6947 129.632 49.4736C128.466 49.8906 128.144 49.9342 126.317 49.9278C124.13 49.9197 122.744 49.6142 121.06 48.7674C119.891 48.1791 118.082 46.8992 117.352 46.1412C117.007 45.7841 116.649 45.49 116.558 45.49C116.144 45.49 111.908 50.6599 111.908 51.1657C111.908 51.6101 113.352 53.1066 114.876 54.2411C118.156 56.6831 121.638 57.9485 125.092 57.9549C132.059 57.9695 138.21 54.629 141.713 48.929C143.16 46.5727 143.704 44.9663 144.705 40.0744C144.833 39.4522 145.045 38.4341 145.179 37.8119C145.314 37.1897 145.531 36.1069 145.663 35.4039C145.796 34.7025 145.947 33.9963 145.997 33.8346C146.049 33.6747 146.154 33.1931 146.233 32.768C146.313 32.3414 146.483 31.5204 146.611 30.9418C147.168 28.4304 149.292 18.1553 149.635 16.3161C149.8 15.4273 149.983 14.5788 150.042 14.4301C150.1 14.2815 150.066 14.0083 149.967 13.8241C149.792 13.4977 149.672 13.488 145.77 13.488C141.125 13.488 141.355 13.4088 141.078 15.1041C140.984 15.681 140.751 16.8818 140.56 17.7706C140.369 18.6595 140.113 19.8958 139.991 20.518C139.868 21.1402 139.65 22.1955 139.506 22.8613C139.238 24.0912 139.025 25.1368 138.562 27.4672C137.643 32.0957 136.384 34.1304 133.625 35.4443C132.449 36.0051 132.313 36.0325 130.692 36.0325C129.071 36.0325 128.94 36.0035 128.102 35.5316C125.969 34.3308 125.435 32.3882 126.22 28.6793C126.361 28.0135 126.594 26.8854 126.737 26.1743C126.881 25.4633 127.098 24.4096 127.219 23.831C127.817 21.0077 127.959 20.3079 128.506 17.5282C128.83 15.883 129.117 14.4221 129.144 14.2782C129.172 14.1344 129.127 13.8985 129.044 13.753C128.913 13.5187 128.442 13.488 124.967 13.488C122.068 13.488 120.972 13.5413 120.784 13.69C120.616 13.8241 120.302 15.041 119.857 17.2858C119.486 19.1524 119.037 21.3697 118.859 22.2149C118.545 23.7066 118.318 24.8007 117.834 27.144C117.706 27.7662 117.488 28.7843 117.35 29.4065C116.974 31.1002 116.769 32.5402 116.767 33.4743C116.767 34.2532 116.711 34.3712 115.935 35.2164C114.821 36.4333 113.176 37.4014 112.044 37.5064C111.034 37.6002 110.172 37.243 109.848 36.5982C109.47 35.8418 109.633 33.9866 110.37 30.6994C110.741 29.0461 111.071 27.4688 111.336 26.0935C111.464 25.4277 111.685 24.3724 111.824 23.7502C111.963 23.128 112.219 21.8917 112.391 21.0028C112.562 20.114 112.818 18.8777 112.957 18.2555C113.215 17.1048 114.533 10.7147 114.907 8.80128C115.496 5.79049 115.982 3.49562 116.123 3.05281C116.346 2.34981 116.319 1.59994 116.061 1.38662C115.82 1.18784 108.572 1.19592 108.028 1.39631M16.1731 1.92154C16.0177 2.03952 15.8898 2.30941 15.8882 2.52273C15.8882 2.73606 15.8169 3.16432 15.7295 3.47623C15.642 3.78814 15.4558 4.66083 15.3133 5.41555C15.1708 6.17027 14.9523 7.32739 14.8276 7.98838C14.6608 8.86592 14.6478 9.2457 14.779 9.40247C14.9231 9.577 16.8208 9.61741 24.8051 9.61741C31.2575 9.61741 34.687 9.67397 34.7534 9.78063C34.8764 9.97941 34.6935 10.2073 31.8372 13.4104C30.5904 14.8083 29.389 16.1772 29.1655 16.4503C28.7575 16.9513 28.1455 17.643 25.9272 20.1107C25.26 20.8541 24.567 21.6557 24.3889 21.8933C24.2108 22.1309 23.5923 22.8597 23.0126 23.511C18.9241 28.1185 17.9559 29.1706 17.815 29.1706C17.7276 29.1706 16.9471 28.9977 16.0825 28.7876C13.7702 28.2236 13.3978 28.1735 11.5244 28.1783C8.37509 28.1848 6.20537 28.7407 4.10851 30.0788C0.738965 32.2299 -0.787935 36.3962 0.398934 40.2037C1.17453 42.6909 3.82191 44.8419 6.72513 45.3429C7.78894 45.5255 9.97 45.4786 11.4176 45.2411C13.7411 44.8597 16.5941 43.1531 19.3435 40.4994C19.9523 39.9128 20.5288 39.4554 20.6275 39.4829C20.7247 39.5104 21.3205 39.8336 21.9504 40.2005C27.4962 43.4343 31.8405 45.2265 35.4755 45.7792C36.439 45.9263 38.1699 46.0378 39.4491 46.0362C41.3678 46.0346 41.9863 45.9667 43.4825 45.595C45.3413 45.1328 47.0609 44.4104 48.264 43.5894L48.9829 43.0965L49.8831 43.785C51.0312 44.6641 51.6124 44.9211 53.3887 45.3364C55.675 45.8714 58.8664 45.4496 60.5439 44.3894C60.7479 44.2601 60.9439 44.1858 60.9811 44.2245C61.0523 44.2957 60.8386 45.5805 60.2476 48.6446C60.0598 49.6223 59.8072 50.9314 59.6874 51.5536C59.1838 54.1684 58.9539 55.3061 58.8098 55.9057C58.5102 57.1485 58.4406 57.1291 62.9889 57.1291C67.5372 57.1291 67.419 57.2131 67.7024 55.4419C67.8012 54.8278 67.9096 54.2783 67.9469 54.2201C67.9825 54.1619 68.0861 53.6836 68.1768 53.1567C68.2675 52.6299 68.5687 51.1075 68.8455 49.7742C69.1224 48.4409 69.4463 46.841 69.5661 46.2188C69.6859 45.5966 69.9061 44.4686 70.0551 43.7139C70.204 42.9591 70.3643 42.1398 70.4097 41.8957C70.5198 41.3026 70.7659 41.335 71.4362 42.0331C72.9308 43.5894 75.196 44.8031 77.5811 45.3219C79.5015 45.7404 81.153 45.7421 83.3017 45.3283C86.5158 44.7094 88.5528 43.7769 91.2649 41.6857C94.6393 39.0837 97.2834 34.709 97.9991 30.5427C98.2517 29.072 98.2517 25.4649 97.9991 24.2867C96.9677 19.4756 94.309 15.8992 90.4537 14.1328C88.7519 13.3538 85.9313 12.806 84.2506 12.9288C81.2761 13.1454 78.3875 14.2895 75.6996 16.3161C75.3434 16.586 75.3191 16.342 75.596 15.2091C76.0121 13.4977 76.2161 13.5817 71.5561 13.5316C68.1817 13.4944 67.5583 13.5251 67.385 13.732C67.1923 13.9647 66.9495 14.978 66.4977 17.4539C66.3844 18.0761 66.0184 19.8942 65.6849 21.4941C65.1343 24.1381 64.8688 25.4552 64.464 27.5545C64.3863 27.9553 64.1693 28.9718 63.9815 29.817C63.7936 30.6622 63.5767 31.7159 63.5006 32.1604C63.2156 33.8104 62.9436 34.5861 62.4562 35.1275C61.5041 36.1861 60.9811 36.6143 60.1343 37.0329C59.4299 37.3804 59.1239 37.4402 58.3661 37.3771C57.5905 37.3125 57.38 37.222 56.9914 36.7889C56.2336 35.942 56.3178 34.9207 57.7233 28.0393C57.8593 27.3735 58.086 26.2083 58.2269 25.4536C58.3677 24.6988 58.5215 23.9554 58.5685 23.8051C58.6155 23.6532 58.7159 23.1813 58.7903 22.7547C59.0105 21.4941 59.7586 17.8547 60.0128 16.8074C60.1424 16.2741 60.2687 15.3287 60.2929 14.7065L60.3383 13.5752L56.2725 13.5316C52.7621 13.4944 52.1775 13.5219 51.9978 13.7385C51.7987 13.9793 51.2967 16.2095 50.1633 21.8965C50.0305 22.5624 49.6888 24.1995 49.4039 25.5327C49.1189 26.866 48.8307 28.2478 48.7643 28.6033C48.6979 28.9589 48.4113 30.3713 48.1263 31.7434C47.5515 34.5183 47.3183 34.9611 45.8805 36.0115C42.6 38.4066 38.9552 38.7136 34.1268 37.0038C32.8168 36.54 27.2614 33.7829 26.6412 33.29L26.2316 32.9636L27.4978 31.4962C28.6587 30.1499 35.6132 22.2957 36.1459 21.7301C37.0559 20.7604 47.8494 8.45705 47.9919 8.22756C48.0502 8.13383 48.2931 6.73429 48.5311 5.1198C48.8825 2.74576 48.9262 2.1381 48.7627 1.93932C48.5846 1.72438 46.6318 1.69529 32.5092 1.70014C19.4196 1.70499 16.4063 1.74539 16.1747 1.91993M84.4772 21.4747C86.111 21.9886 87.4906 23.2751 88.3989 25.1303C88.9478 26.2519 88.9964 26.4717 89.0515 28.0603C89.1162 29.9398 88.9041 30.9871 88.1512 32.4771C87.7885 33.1963 87.0485 34.2597 86.5692 34.7542C86.2341 35.1001 84.6052 36.2539 84.0741 36.5222C80.9328 38.1076 76.914 37.6923 74.7799 35.5623C73.4003 34.1853 72.7251 32.4545 72.7284 30.3035C72.7316 28.5694 72.913 27.7775 73.6562 26.2729C75.0972 23.3526 77.8742 21.3858 80.9247 21.1273C82.4597 20.9964 83.1754 21.0675 84.4756 21.4763M12.5656 35.0629C13.0967 35.2665 12.8101 35.6786 12.5526 36.0035C11.6653 37.1202 10.2226 38.1884 8.77503 38.4098C7.56873 38.5941 6.41586 38.0591 6.87247 36.6887C7.07325 36.0891 7.57197 35.6237 8.13707 35.3392C9.38385 34.7122 11.254 34.5603 12.5656 35.0613" fill="#1E6FFB"/>
<path d="M56.4991 10.9927C59.5404 10.9927 62.0059 8.5319 62.0059 5.49635C62.0059 2.4608 59.5404 0 56.4991 0C53.4577 0 50.9922 2.4608 50.9922 5.49635C50.9922 8.5319 53.4577 10.9927 56.4991 10.9927Z" fill="#1E6FFB"/>
</svg>
