<svg width="123" height="9" viewBox="0 0 123 9" fill="none" xmlns="http://www.w3.org/2000/svg">
<path fill-rule="evenodd" clip-rule="evenodd" d="M58.6622 0.104446C57.7796 0.225365 56.5752 0.804865 56.03 1.37182C54.7856 2.66657 54.5258 4.6663 55.3902 6.30099C56.7524 8.87566 60.8768 8.9692 61.9088 6.45043L62.1492 5.86294L62.1552 6.9592L62.1613 8.05546L62.908 8.12847C63.3184 8.16839 63.7834 8.20148 63.94 8.20148H64.2253V4.09478H59.6117V4.89331H61.8007L61.6137 5.32109C61.3151 6.00554 61.0346 6.30099 60.4081 6.59644C59.8654 6.85197 59.7695 6.86338 59.1552 6.74246C58.3466 6.58275 57.7577 6.18121 57.3971 5.54353C57.1834 5.16594 57.1264 4.87391 57.1252 4.15296C57.1227 3.359 57.1665 3.17078 57.4603 2.70193C57.9277 1.95474 58.621 1.58628 59.5643 1.58628C60.5077 1.58628 61.0443 1.85549 61.4195 2.54108L61.7097 3.06925H63.9885L63.9096 2.75554C63.56 1.37068 62.3798 0.413588 60.6473 0.113572C59.8594 -0.0233182 59.6165 -0.024459 58.6622 0.106727M79.8388 0.112431C78.8383 0.338299 77.9448 1.17675 77.5405 2.26844L77.3498 2.78178L77.3438 1.4414L77.3377 0.101023H75.2737V8.08626H77.3098L77.3681 6.11847C77.4081 4.74843 77.4858 3.97386 77.623 3.57004C78.0285 2.37567 78.7922 1.69807 79.7307 1.69807C80.4021 1.69807 80.6765 1.83382 80.9485 2.30039C81.1318 2.61523 81.1682 3.05328 81.2022 5.37698L81.2423 8.08626H83.2638L83.3136 6.06143C83.3573 4.29555 83.3986 3.95219 83.6377 3.37839C84.1234 2.21711 84.7754 1.69807 85.7466 1.69807C86.174 1.69807 86.3428 1.76309 86.6172 2.03231C87.0882 2.49431 87.1599 2.97913 87.1659 5.71921L87.1708 8.08626H89.2554L89.2141 5.0918C89.1741 2.13498 89.1692 2.08935 88.8536 1.45737C88.2987 0.345143 87.2351 -0.143097 85.9288 0.113572C84.8178 0.332595 83.8866 1.20299 83.384 2.48861L83.1812 3.00879L83.1715 2.60154C83.1327 0.910954 81.5434 -0.274283 79.8339 0.11129M94.7129 0.119275C93.6347 0.410166 92.7873 1.32505 92.5092 2.49659C92.4485 2.75098 92.4218 2.38822 92.4352 1.49844L92.4558 0.101023H91.4542H90.4525V8.08626H92.5165V5.91542C92.5165 4.33092 92.5615 3.64305 92.6841 3.36927C93.0787 2.48176 94.2005 1.69921 95.0771 1.69921H95.4316V0.84365C95.4316 -0.0814963 95.4377 -0.0746519 94.7153 0.120416M98.9501 0.107868C96.5389 0.571012 95.0492 2.59812 95.4377 4.8876C95.6113 5.91199 95.9185 6.50404 96.6117 7.15655C97.4385 7.9334 98.3091 8.2357 99.7381 8.24026C101.14 8.24482 102.017 7.94481 102.907 7.15427C103.83 6.33521 104.221 5.45798 104.222 4.20886C104.222 3.67499 104.155 3.0259 104.072 2.76467C103.864 2.1019 103.232 1.26116 102.613 0.819695C101.763 0.213957 100.089 -0.111156 98.9489 0.107868M108.061 0.112431C106.867 0.332595 105.737 1.35356 105.307 2.6004C105.159 3.03046 105.086 3.59514 105.084 4.32293C105.081 5.23325 105.13 5.5173 105.391 6.09794C106.058 7.58319 107.065 8.2608 108.601 8.25509C109.911 8.25053 110.661 7.79993 111.266 6.65348L111.564 6.09109L111.57 7.07328L111.576 8.05546L112.322 8.12847C112.733 8.16839 113.198 8.20148 113.354 8.20148H113.64V0.102164H111.576V2.08593L111.255 1.48247C110.87 0.755813 110.217 0.27898 109.378 0.110149C109.044 0.0428452 108.733 -0.006207 108.686 0.000637493C108.639 0.00748198 108.357 0.0576749 108.06 0.112431M65.2597 2.92552C65.3496 6.13216 65.4613 6.71394 66.1145 7.39383C66.7482 8.05318 67.6115 8.36004 68.5888 8.27448C70.2704 8.12733 71.3509 7.24325 71.9555 5.52072L72.1158 5.06442L72.1 5.46368C72.0915 5.68384 72.0915 6.36373 72.1012 6.97517L72.1195 8.0874H74.062V0.102164H71.998V1.6262C71.998 3.4879 71.8742 4.16437 71.3618 5.10777C70.8361 6.07512 70.1987 6.51545 69.2347 6.57933C68.6519 6.61698 68.4686 6.58047 68.1153 6.3546C67.4123 5.90515 67.3893 5.79336 67.3868 2.81144L67.3844 0.102164H65.1808L65.2609 2.92552M114.855 4.07767V8.08626H117.028C118.854 8.08626 119.324 8.04976 119.972 7.86039C121.27 7.47938 122.243 6.71394 122.743 5.677C123.088 4.96175 123.085 3.21983 122.737 2.49659C122.278 1.54293 121.394 0.863043 120.055 0.434122C119.418 0.229928 118.909 0.177453 117.071 0.128401L114.855 0.0690824V4.07767ZM0 3.91226V7.1748H0.849878V4.79977L2.1162 4.76098C3.48329 4.71877 3.76496 4.61268 4.30281 3.93622C4.67554 3.46623 4.6634 2.0152 4.28217 1.51327C3.81595 0.898406 3.28781 0.739842 1.54799 0.691931L0 0.648582V3.91112M36.9903 0.747827C36.9454 0.790035 36.909 1.32961 36.909 1.94675V3.07039L36.5751 2.72246C36.0069 2.12927 34.8341 2.11787 34.102 2.69737C32.9631 3.59742 32.9522 5.99527 34.0838 6.83144C34.8596 7.40523 35.979 7.40067 36.5545 6.82345C36.9697 6.40594 37.0316 6.40708 37.0316 6.83258C37.0316 7.13716 37.0717 7.1748 37.3959 7.1748H37.7601V0.672538H37.4165C37.2271 0.672538 37.0365 0.706761 36.9916 0.748968M41.8869 3.92367V7.1748H42.3118C42.7185 7.1748 42.7367 7.15655 42.7367 6.76641V6.35803L43.0378 6.69455C43.4579 7.16339 43.9508 7.33108 44.6259 7.2364C46.197 7.0151 47.0153 4.97772 46.1666 3.40235C45.4721 2.11444 43.8816 1.86234 42.9528 2.89357C42.7537 3.11488 42.744 3.07153 42.7404 1.89884L42.7367 0.672538H41.8869V3.92367ZM119.288 1.584C120.216 1.91253 120.918 2.94263 120.923 3.98071C120.927 4.77353 120.776 5.26747 120.36 5.83214C119.873 6.49264 119.25 6.74816 117.983 6.80862L116.92 6.85882V1.32276L117.923 1.38893C118.474 1.42543 119.09 1.51327 119.289 1.584M3.35095 1.73686C3.61562 1.95132 3.6909 2.12585 3.73582 2.63348C3.78681 3.2107 3.7601 3.2974 3.4238 3.65103C3.06442 4.02976 3.03164 4.03889 1.95351 4.07767L0.851092 4.1176V1.47106H1.93651C2.8993 1.47106 3.05956 1.50072 3.35095 1.73686ZM101.219 1.88515C101.936 2.43043 102.269 3.14568 102.266 4.12901C102.26 5.82644 101.343 6.83144 99.8 6.83144C98.9926 6.83144 98.5021 6.6261 97.9594 6.06143C96.9869 5.04845 97.0695 2.97571 98.1184 2.0825C98.6939 1.59198 99.0922 1.46422 99.9445 1.49958C100.643 1.5281 100.822 1.58286 101.219 1.88401M110.319 1.80302C111.334 2.3848 111.691 4.39594 111.007 5.677C110.591 6.45613 110.092 6.76413 109.257 6.75158C108.447 6.74018 107.901 6.39567 107.512 5.64848C107.088 4.83399 107.006 4.06398 107.255 3.25633C107.46 2.59356 108.03 1.86006 108.474 1.69237C108.941 1.51441 109.917 1.57259 110.318 1.80188M6.86337 2.52968C6.2466 2.85821 5.87752 3.37725 5.70511 4.15866C5.54849 4.87049 5.69297 5.77853 6.04628 6.28274C6.89615 7.50106 8.85573 7.5946 9.75175 6.46184C10.8032 5.13058 10.3442 3.00993 8.88001 2.43157C8.2681 2.18973 7.42794 2.2308 6.86459 2.52968M11.0484 2.38936C11.0484 2.45553 11.3859 3.56205 11.7987 4.84768L12.5491 7.18621L12.9764 7.15199C13.3346 7.12347 13.4196 7.06301 13.5021 6.77554C13.5568 6.58732 13.8129 5.71465 14.0728 4.83627L14.5438 3.23922L14.6859 3.75256C14.7636 4.03432 15.0246 4.92297 15.2638 5.72605L15.7009 7.18621L16.1222 7.15199L16.5435 7.11777L17.3169 4.72219C17.7418 3.40463 18.0903 2.31065 18.0915 2.29126C18.0915 2.27187 17.8887 2.27187 17.641 2.29126L17.1906 2.32662L16.6443 4.24992C16.3444 5.30854 16.0821 6.12874 16.0627 6.07512C16.0433 6.02151 15.7956 5.15568 15.5115 4.15182L14.9955 2.32662L14.5572 2.2924L14.1189 2.25818L13.7425 3.54722C13.5349 4.25677 13.2994 5.10549 13.2192 5.43516C13.1391 5.76484 13.0408 6.03405 13.0019 6.03291C12.9631 6.03291 12.6923 5.18534 12.4009 4.15068L11.8692 2.26959H11.4588C11.2342 2.26959 11.0496 2.3232 11.0496 2.38936M19.9758 2.52968C19.0361 3.02932 18.5541 4.21 18.8127 5.37927C19.047 6.4413 19.6103 6.99 20.6848 7.20104C21.5286 7.36759 22.228 7.18849 22.7889 6.66147C23.2794 6.2006 23.2879 6.08881 22.8435 5.94279C22.5412 5.84355 22.4574 5.86979 22.1806 6.14471C21.684 6.63979 20.8645 6.70139 20.1955 6.29415C19.9588 6.15041 19.5472 5.40322 19.5472 5.11917C19.5472 5.05073 20.2817 5.00738 21.4291 5.00738H23.3109V4.56591C23.3109 4.04117 23.0244 3.22553 22.7306 2.91525C22.1284 2.27871 20.7977 2.09277 19.9758 2.52968ZM24.5251 4.72219V7.1748H25.3749V5.42261C25.3749 3.70008 25.3798 3.66472 25.6821 3.38181C25.9868 3.09435 26.7275 2.88103 26.9557 3.01335C27.0249 3.05328 27.0747 2.91297 27.0747 2.67683C27.0747 2.29924 27.048 2.27073 26.702 2.27073C26.2309 2.27073 25.8727 2.43842 25.5267 2.82285L25.2547 3.12629V2.69851C25.2535 2.29924 25.2292 2.27073 24.8893 2.27073H24.5251V4.72333M29.061 2.44526C27.5883 3.05214 27.2095 5.43174 28.3981 6.60557C29.3754 7.5695 31.3095 7.46113 31.9651 6.40594L32.1897 6.04432L31.7903 5.94736C31.4394 5.8618 31.3569 5.88804 31.1128 6.16068C30.7547 6.55994 30.059 6.68314 29.4677 6.45043C28.9821 6.25992 28.6943 5.90971 28.5802 5.37242L28.5025 5.00738H32.3245L32.2395 4.35145C32.1242 3.4571 31.7041 2.80802 31.0448 2.50914C30.4451 2.2365 29.6328 2.21027 29.061 2.44526ZM47.1075 2.31522C47.1075 2.34031 47.547 3.45026 48.0849 4.78151C48.9578 6.94323 49.0489 7.23983 48.9336 7.55239C48.7442 8.06116 48.4528 8.31555 48.057 8.31555C47.7947 8.31555 47.6794 8.38742 47.5895 8.60872C47.524 8.76957 47.4706 8.92357 47.4706 8.95095C47.4706 8.97833 47.7364 9 48.0606 9C48.7272 9 49.1752 8.74333 49.4823 8.18436C49.7082 7.7737 51.8401 2.52055 51.8401 2.37339C51.8401 2.31636 51.6556 2.26959 51.4298 2.26959H51.0206L50.3541 4.00923C49.9874 4.96631 49.6511 5.89602 49.605 6.07512C49.5333 6.3546 49.4277 6.14813 48.8729 4.64919C47.9246 2.08707 48.0278 2.26959 47.5325 2.26959C47.2969 2.26959 47.1051 2.29012 47.1051 2.31522M8.71854 3.18447C9.79667 3.80161 9.6874 5.99641 8.55706 6.4413C7.03456 7.03905 5.87873 5.22412 6.7541 3.61225C7.10013 2.97571 8.00828 2.77836 8.71854 3.18447ZM21.7217 3.11944C22.0337 3.27116 22.4611 3.89287 22.4611 4.19631C22.4611 4.28072 21.9803 4.32179 20.9956 4.32179C19.5338 4.32179 19.5302 4.32179 19.6091 4.06512C19.8932 3.14112 20.8694 2.70421 21.7217 3.11944ZM30.7765 3.20044C31.0546 3.40577 31.4455 4.02634 31.4455 4.26133C31.4455 4.29441 30.7899 4.32179 29.9886 4.32179C29.0525 4.32179 28.5316 4.27844 28.5316 4.20201C28.5316 3.96702 28.8971 3.42516 29.2127 3.19131C29.6413 2.87418 30.3394 2.87874 30.7753 3.20044M36.1963 3.13199C36.6698 3.36242 36.9296 3.95219 36.9248 4.79064C36.9199 5.85838 36.4221 6.50975 35.5978 6.53028C34.6617 6.55309 34.1056 5.90287 34.0995 4.78037C34.0923 3.3339 35.0538 2.57759 36.1951 3.13199M44.9816 3.20044C45.9906 3.94649 45.8242 6.01466 44.7194 6.44815C43.7869 6.81433 42.965 6.26677 42.7889 5.16252C42.5947 3.94306 43.2114 2.95403 44.1657 2.95403C44.4753 2.95403 44.7667 3.04187 44.9816 3.20158" fill="black"/>
</svg>
