<svg width="187" height="44" viewBox="0 0 187 44" fill="none" xmlns="http://www.w3.org/2000/svg">
<path fill-rule="evenodd" clip-rule="evenodd" d="M81.3421 1.12213C81.1031 1.21158 81.069 1.29122 80.863 2.26413C80.7922 2.6011 80.6508 3.26277 80.5508 3.73452C80.4509 4.20627 80.3119 4.89613 80.2436 5.26618C80.1753 5.63623 80.0132 6.43637 79.8827 7.0429C79.1 10.7079 78.7513 12.3866 78.6537 12.9563C78.594 13.3117 78.5172 13.6462 78.483 13.7001C78.4501 13.754 78.3648 14.1265 78.2953 14.526C78.2258 14.9254 78.0575 15.7758 77.9222 16.4166C77.7869 17.0575 77.5406 18.2424 77.3748 19.0511C77.2102 19.8598 76.9066 21.3204 76.7018 22.2982C75.7788 26.691 75.6398 27.8281 75.8264 29.4799C75.9568 30.639 76.4152 31.7688 77.1626 32.6657C78.7098 34.5233 81.3458 34.8713 83.5928 34.5037C84.2146 34.402 84.8279 34.2329 85.4204 34.0209C86.7823 33.5345 88.7465 32.3851 89.5889 31.5801L89.9779 31.2088L90.3692 31.5396C91.6116 32.591 93.4563 33.1093 95.9667 33.1117C97.3773 33.1129 97.787 33.0664 98.8319 32.7821C99.917 32.4868 101.25 31.9244 101.662 31.5862C102.294 31.0666 101.877 33.1178 101.008 34.8039C100.346 36.088 99.2513 36.9788 97.6102 37.5695C96.7324 37.8856 96.4897 37.9187 95.1145 37.9138C93.4673 37.9076 92.4236 37.6761 91.1556 37.034C90.2754 36.588 88.9135 35.6175 88.3636 35.0428C88.1039 34.772 87.8345 34.549 87.7662 34.549C87.4541 34.549 84.2646 38.4688 84.2646 38.8524C84.2646 39.1893 85.3521 40.324 86.4994 41.1842C88.9696 43.0356 91.5909 43.9951 94.1915 44C99.4378 44.011 104.07 41.4782 106.707 37.1565C107.797 35.37 108.206 34.152 108.96 30.443C109.056 29.9712 109.216 29.1993 109.317 28.7275C109.418 28.2558 109.582 27.4348 109.682 26.9018C109.782 26.37 109.895 25.8345 109.933 25.712C109.972 25.5907 110.051 25.2255 110.111 24.9033C110.171 24.5798 110.299 23.9573 110.395 23.5186C110.814 21.6145 112.414 13.8239 112.672 12.4294C112.797 11.7555 112.935 11.1122 112.979 10.9995C113.022 10.8868 112.997 10.6797 112.922 10.54C112.791 10.2925 112.701 10.2851 109.762 10.2851C106.264 10.2851 106.437 10.2251 106.229 11.5104C106.158 11.9479 105.983 12.8583 105.839 13.5322C105.695 14.2062 105.502 15.1435 105.411 15.6153C105.318 16.087 105.154 16.8872 105.045 17.392C104.844 18.3245 104.683 19.1173 104.334 20.8842C103.643 24.3935 102.694 25.9362 100.617 26.9324C99.7317 27.3576 99.6292 27.3784 98.4088 27.3784C97.1884 27.3784 97.0896 27.3564 96.458 26.9986C94.8523 26.0881 94.45 24.6153 95.0413 21.8032C95.1474 21.2983 95.3229 20.4431 95.4302 19.9039C95.5387 19.3648 95.7021 18.5659 95.7936 18.1272C96.2435 15.9866 96.3507 15.456 96.7628 13.3484C97.0067 12.1011 97.2225 10.9934 97.2432 10.8843C97.2639 10.7752 97.2298 10.5964 97.1676 10.4861C97.0689 10.3084 96.7141 10.2851 94.0976 10.2851C91.9152 10.2851 91.0898 10.3256 90.9484 10.4383C90.8216 10.54 90.585 11.4627 90.2498 13.1646C89.9706 14.5799 89.6328 16.261 89.4987 16.9019C89.2622 18.0329 89.0915 18.8624 88.7269 20.6391C88.6306 21.1109 88.466 21.8828 88.3624 22.3546C88.0795 23.6387 87.9247 24.7305 87.9235 25.4387C87.9235 26.0293 87.8808 26.1188 87.2968 26.7596C86.458 27.6823 85.2192 28.4163 84.367 28.4959C83.6062 28.567 82.9576 28.2962 82.7137 27.8073C82.4284 27.2338 82.5516 25.8272 83.1063 23.3348C83.3855 22.0813 83.6343 20.8854 83.8342 19.8427C83.9305 19.3378 84.0963 18.5377 84.2012 18.0659C84.306 17.5942 84.4987 16.6568 84.6279 15.9829C84.7572 15.309 84.9498 14.3716 85.0546 13.8998C85.2485 13.0274 86.241 8.18246 86.5226 6.73167C86.9664 4.44889 87.3322 2.70893 87.4382 2.37319C87.6065 1.84017 87.5858 1.27162 87.3919 1.10988C87.2102 0.959161 81.753 0.965288 81.3433 1.11723M12.1781 1.51546C12.061 1.60491 11.9647 1.80954 11.9635 1.97128C11.9635 2.13302 11.9098 2.45773 11.844 2.69422C11.7782 2.93071 11.6379 3.59239 11.5306 4.16461C11.4234 4.73684 11.2588 5.61417 11.1649 6.11533C11.0393 6.78068 11.0295 7.06864 11.1283 7.18749C11.2368 7.31983 12.6657 7.35046 18.6777 7.35046C23.5363 7.35046 26.1186 7.39335 26.1686 7.47422C26.2613 7.62493 26.1235 7.79771 23.9728 10.2263C23.034 11.2862 22.1294 12.3241 21.9611 12.5311C21.6539 12.911 21.193 13.4354 19.5227 15.3065C19.0203 15.8702 18.4985 16.4779 18.3644 16.658C18.2303 16.8382 17.7645 17.3908 17.3281 17.8846C14.2495 21.378 13.5204 22.1757 13.4143 22.1757C13.3485 22.1757 12.7608 22.0446 12.1098 21.8853C10.3687 21.4576 10.0883 21.4197 8.67767 21.4233C6.30628 21.4282 4.67252 21.8497 3.09363 22.8643C0.556427 24.4952 -0.5933 27.6541 0.30039 30.541C0.884398 32.4268 2.87783 34.0577 5.06389 34.4375C5.86492 34.576 7.50722 34.5404 8.5972 34.3603C10.3468 34.0711 12.4951 32.7772 14.5653 30.7652C15.0237 30.3204 15.4578 29.9737 15.5321 29.9945C15.6053 30.0153 16.054 30.2604 16.5282 30.5385C20.7041 32.9904 23.9753 34.3493 26.7124 34.7684C27.4378 34.8799 28.7412 34.9644 29.7044 34.9632C31.1492 34.962 31.6149 34.9105 32.7415 34.6287C34.1411 34.2782 35.4359 33.7305 36.3418 33.108L36.8832 32.7343L37.5611 33.2563C38.4255 33.9229 38.8632 34.1177 40.2007 34.4326C41.9222 34.8382 44.3253 34.5184 45.5884 33.7146C45.742 33.6166 45.8896 33.5602 45.9176 33.5896C45.9712 33.6435 45.8103 34.6176 45.3653 36.9409C45.2239 37.6822 45.0337 38.6747 44.9434 39.1464C44.5643 41.129 44.3911 41.9917 44.2826 42.4463C44.0571 43.3885 44.0046 43.3738 47.4294 43.3738C50.8542 43.3738 50.7652 43.4375 50.9786 42.0946C51.053 41.629 51.1347 41.2123 51.1627 41.1682C51.1895 41.1241 51.2676 40.7614 51.3358 40.362C51.4041 39.9625 51.6309 38.8083 51.8394 37.7974C52.0479 36.7865 52.2917 35.5734 52.3819 35.1016C52.4721 34.6299 52.638 33.7746 52.7501 33.2024C52.8623 32.6302 52.983 32.0089 53.0171 31.8239C53.1 31.3742 53.2854 31.3987 53.7901 31.9281C54.9155 33.108 56.6212 34.0283 58.4171 34.4216C59.8631 34.7389 61.1067 34.7402 62.7246 34.4265C65.1447 33.9572 66.6785 33.2502 68.7207 31.6646C71.2616 29.6918 73.2526 26.3749 73.7915 23.216C73.9817 22.1009 73.9817 19.366 73.7915 18.4727C73.0148 14.825 71.0129 12.1133 68.1099 10.774C66.8285 10.1834 64.7046 9.76803 63.4391 9.86116C61.1993 10.0253 59.0243 10.8929 57.0003 12.4294C56.7321 12.6341 56.7138 12.449 56.9223 11.5901C57.2356 10.2925 57.3893 10.3562 53.8803 10.3182C51.3395 10.29 50.8701 10.3133 50.7396 10.4701C50.5945 10.6466 50.4117 11.4149 50.0715 13.2921C49.9861 13.7638 49.7106 15.1423 49.4594 16.3554C49.0449 18.36 48.845 19.3587 48.5402 20.9504C48.4816 21.2542 48.3183 22.025 48.1768 22.6658C48.0354 23.3067 47.872 24.1056 47.8147 24.4425C47.6001 25.6936 47.3953 26.2817 47.0283 26.6922C46.3114 27.4948 45.9176 27.8195 45.28 28.1369C44.7496 28.4003 44.5192 28.4457 43.9486 28.3979C43.3646 28.3489 43.2061 28.2803 42.9134 27.9519C42.3428 27.3098 42.4062 26.5354 43.4645 21.318C43.5669 20.8131 43.7376 19.9297 43.8437 19.3574C43.9498 18.7852 44.0656 18.2216 44.101 18.1076C44.1363 17.9924 44.2119 17.6346 44.268 17.3111C44.4338 16.3554 44.9971 13.5959 45.1885 12.8019C45.286 12.3976 45.3811 11.6808 45.3994 11.209L45.4336 10.3513L42.3721 10.3182C39.7288 10.29 39.2887 10.3109 39.1534 10.475C39.0034 10.6576 38.6254 12.3486 37.772 16.6605C37.672 17.1653 37.4147 18.4066 37.2002 19.4175C36.9856 20.4284 36.7686 21.476 36.7186 21.7456C36.6686 22.0152 36.4528 23.0861 36.2382 24.1264C35.8054 26.2303 35.6298 26.566 34.5471 27.3625C32.077 29.1784 29.3325 29.4112 25.6968 28.1148C24.7104 27.7632 20.5273 25.6728 20.0603 25.299L19.7519 25.0515L20.7053 23.9389C21.5795 22.9182 26.816 16.9631 27.2172 16.5343C27.9024 15.7991 36.0297 6.47068 36.137 6.29668C36.1809 6.22561 36.3638 5.16448 36.543 3.94038C36.8076 2.14038 36.8405 1.67965 36.7174 1.52894C36.5832 1.36597 35.1129 1.34391 24.4788 1.34759C14.6226 1.35127 12.3536 1.3819 12.1793 1.51423M63.6097 16.3407C64.8399 16.7303 65.8787 17.7057 66.5627 19.1124C66.976 19.9627 67.0126 20.1294 67.054 21.3339C67.1028 22.7589 66.9431 23.5529 66.3762 24.6827C66.1031 25.228 65.5459 26.0342 65.185 26.4092C64.9326 26.6714 63.7061 27.5463 63.3062 27.7497C60.9409 28.9517 57.9148 28.6368 56.3078 27.0218C55.269 25.9779 54.7606 24.6655 54.7631 23.0346C54.7655 21.7199 54.9021 21.1195 55.4617 19.9787C56.5468 17.7645 58.6378 16.2733 60.9348 16.0772C62.0906 15.978 62.6295 16.0319 63.6085 16.3419M9.46163 26.6432C9.86153 26.7976 9.64573 27.1101 9.45187 27.3564C8.78374 28.2031 7.69741 29.013 6.60743 29.1809C5.69911 29.3206 4.83102 28.915 5.17484 27.8759C5.32603 27.4213 5.70155 27.0684 6.12705 26.8528C7.06586 26.3773 8.47406 26.2621 9.46163 26.642" fill="white"/>
<path d="M42 8C44.2091 8 46 6.20914 46 4C46 1.79086 44.2091 0 42 0C39.7909 0 38 1.79086 38 4C38 6.20914 39.7909 8 42 8Z" fill="white"/>
</svg>
